<svg id="Layer_1" data-name="Layer 1" xmlns="http://www.w3.org/2000/svg" viewBox="0 0 137.84 70.93"><defs><style>.cls-1{fill:#fff;}</style></defs><title>HC_UK copy 3</title><path class="cls-1" d="M47.86,40.11c8.55,0,15.49-6.61,15.49-14.74S56.41,10.65,47.86,10.65l-7.09,0V40.11Zm-1.27-3.33H45V14.21h1.53c6.89,0,12.5,4.74,12.5,11.29S53.46,36.76,46.59,36.78Z"/><rect class="cls-1" x="32.56" y="10.67" width="4.25" height="29.44"/><path class="cls-1" d="M27.13,37.08c-7.08,0-12-4.36-12.56-10.32H28.09v-3H14.69C15.68,18.13,21,14,27.17,14h2V10.77H26.29c-8.55,0-15.92,6.71-15.92,14.84s7.37,14.62,15.92,14.62h3.07V37.08Z"/><path class="cls-1" d="M95.94,25.41a15.26,15.26,0,0,0-15-15.21h-.26a15.22,15.22,0,0,0,0,30.43h.26A15.27,15.27,0,0,0,95.94,25.41ZM80.78,37.07c-6-.07-10.91-5.26-10.91-11.66s4.87-11.58,10.91-11.66c6,.08,10.91,5.27,10.91,11.66S86.82,37,80.78,37.07Z"/><polygon class="cls-1" points="95.97 10.69 125.47 10.69 125.47 40.19 95.97 10.69"/><path class="cls-1" d="M22.9,49.27v13H20.79V56.46h-6.5v5.77H12.17v-13h2.12v5.67h6.5V49.27Z"/><path class="cls-1" d="M34.08,60.53v1.7H26v-13h8.08V51h-6v3.91h4.77v1.64H28.1v4Z"/><path class="cls-1" d="M47.2,62.23H45.57a.69.69,0,0,1-.45-.14,1,1,0,0,1-.26-.34l-1.08-2.87H38.2l-1.08,2.87a.85.85,0,0,1-.25.33.68.68,0,0,1-.45.15H34.79l5.14-13h2.13Zm-4-4.86-1.78-4.73a14.11,14.11,0,0,1-.44-1.4c-.07.28-.14.54-.22.78l-.21.63-1.78,4.72Z"/><path class="cls-1" d="M56.2,60.47v1.76H48.71v-13h2.11v11.2Z"/><path class="cls-1" d="M65.28,51h-4v11.2h-2.1V51h-4V49.27H65.28Z"/><path class="cls-1" d="M77.81,49.27v13H75.7V56.46H69.19v5.77H67.08v-13h2.11v5.67H75.7V49.27Z"/><path class="cls-1" d="M89.89,59.34a.39.39,0,0,1,.3.14l.84.91a5.47,5.47,0,0,1-2,1.47,6.71,6.71,0,0,1-2.75.52,6.44,6.44,0,0,1-2.57-.5,5.66,5.66,0,0,1-2-1.36,6.12,6.12,0,0,1-1.24-2.1,7.87,7.87,0,0,1-.44-2.67,7.73,7.73,0,0,1,.46-2.68A6.13,6.13,0,0,1,81.89,51a5.89,5.89,0,0,1,2-1.37,6.82,6.82,0,0,1,2.59-.48,6.34,6.34,0,0,1,2.48.45,6.15,6.15,0,0,1,1.87,1.21l-.69,1a.69.69,0,0,1-.17.17.46.46,0,0,1-.27.08.74.74,0,0,1-.41-.17c-.16-.11-.35-.23-.59-.37a4.78,4.78,0,0,0-.89-.37,4.6,4.6,0,0,0-1.34-.17,4.33,4.33,0,0,0-1.7.33,3.67,3.67,0,0,0-1.33.94,4.52,4.52,0,0,0-.87,1.52,6.3,6.3,0,0,0-.31,2,5.9,5.9,0,0,0,.33,2,4.26,4.26,0,0,0,.89,1.51,3.67,3.67,0,0,0,1.33.94,4.12,4.12,0,0,0,1.65.33,6.85,6.85,0,0,0,1-.06,3.66,3.66,0,0,0,.79-.19A3.89,3.89,0,0,0,88.9,60a3.85,3.85,0,0,0,.63-.49A.58.58,0,0,1,89.89,59.34Z"/><path class="cls-1" d="M103.7,62.23h-1.63a.73.73,0,0,1-.45-.14,1,1,0,0,1-.26-.34l-1.08-2.87H94.7l-1.08,2.87a.85.85,0,0,1-.25.33.68.68,0,0,1-.45.15H91.29l5.14-13h2.13Zm-4-4.86-1.78-4.73a14.11,14.11,0,0,1-.44-1.4c-.07.28-.14.54-.22.78s-.15.45-.21.63l-1.78,4.72Z"/><path class="cls-1" d="M115.08,62.23H113.2a.85.85,0,0,1-.81-.43l-3-4.37a1,1,0,0,0-.33-.32,1.1,1.1,0,0,0-.54-.1h-1.17v5.22h-2.11v-13H109a8.35,8.35,0,0,1,2.2.26,4.4,4.4,0,0,1,1.52.74,3.06,3.06,0,0,1,.87,1.16,3.82,3.82,0,0,1,.29,1.5,3.7,3.7,0,0,1-.21,1.26,3.58,3.58,0,0,1-.58,1.07,3.94,3.94,0,0,1-.94.82,4.56,4.56,0,0,1-1.27.55,2.21,2.21,0,0,1,.67.66ZM109,55.48a4.32,4.32,0,0,0,1.26-.17,2.76,2.76,0,0,0,.9-.49,2,2,0,0,0,.54-.76,2.49,2.49,0,0,0,.18-1,1.93,1.93,0,0,0-.7-1.62,3.31,3.31,0,0,0-2.12-.56h-1.71v4.56Z"/><path class="cls-1" d="M124.73,60.53v1.7h-8.08v-13h8.08V51h-6v3.91h4.77v1.64h-4.77v4Z"/></svg>