<svg width="71" height="22" viewBox="0 0 71 22" fill="none" xmlns="http://www.w3.org/2000/svg">
<path d="M7.63 20.3C6.31 20.3 5.31 19.92 4.63 19.16C3.95 18.38 3.61 17.45 3.61 16.37V8.06H1.48L1.81 5H3.61V1.7L7.33 1.31V5H10.63V8.06H7.33V14.84C7.33 15.64 7.37 16.2 7.45 16.52C7.55 16.82 7.74 17.02 8.02 17.12C8.32 17.2 8.85 17.24 9.61 17.24H10.63L10.3 20.3H7.63ZM19.3825 20.3C17.6425 20.3 16.1525 19.95 14.9125 19.25C13.6925 18.53 12.7725 17.58 12.1525 16.4C11.5525 15.2 11.2525 13.87 11.2525 12.41C11.2525 11.01 11.5425 9.73 12.1225 8.57C12.7025 7.41 13.5425 6.49 14.6425 5.81C15.7425 5.11 17.0525 4.76 18.5725 4.76C19.9725 4.76 21.1525 5.05 22.1125 5.63C23.0925 6.21 23.8225 6.99 24.3025 7.97C24.8025 8.95 25.0525 10.05 25.0525 11.27C25.0525 11.87 24.9725 12.55 24.8125 13.31H15.1225C15.3225 14.63 15.8425 15.62 16.6825 16.28C17.5225 16.92 18.5325 17.24 19.7125 17.24C21.3325 17.24 22.8325 16.83 24.2125 16.01L24.3925 19.16C23.7525 19.5 23.0025 19.78 22.1425 20C21.3025 20.2 20.3825 20.3 19.3825 20.3ZM21.2725 10.79C21.2725 10.01 21.0525 9.32 20.6125 8.72C20.1725 8.12 19.4925 7.82 18.5725 7.82C17.6525 7.82 16.9125 8.09 16.3525 8.63C15.7925 9.17 15.4125 9.89 15.2125 10.79H21.2725ZM29.932 20.3C28.692 20.3 27.652 19.9 26.812 19.1C25.992 18.28 25.582 17.18 25.582 15.8C25.582 14.5 26.052 13.46 26.992 12.68C27.932 11.88 29.042 11.32 30.322 11C31.602 10.66 32.832 10.47 34.012 10.43C33.972 9.55 33.742 8.92 33.322 8.54C32.922 8.16 32.252 7.97 31.312 7.97C30.652 7.97 30.002 8.06 29.362 8.24C28.742 8.42 28.022 8.71 27.202 9.11L26.872 6.08C28.692 5.2 30.512 4.76 32.332 4.76C34.092 4.76 35.432 5.24 36.352 6.2C37.292 7.16 37.762 8.69 37.762 10.79V14.84C37.762 15.6 37.792 16.15 37.852 16.49C37.932 16.81 38.052 17.02 38.212 17.12C38.392 17.2 38.682 17.24 39.082 17.24H39.562L39.232 20.3H37.882C37.062 20.3 36.372 20.15 35.812 19.85C35.252 19.53 34.822 19.1 34.522 18.56C34.042 19.1 33.382 19.53 32.542 19.85C31.722 20.15 30.852 20.3 29.932 20.3ZM31.492 17.45C31.872 17.45 32.302 17.36 32.782 17.18C33.262 16.98 33.682 16.71 34.042 16.37V12.95C32.842 13.01 31.782 13.27 30.862 13.73C29.942 14.19 29.482 14.83 29.482 15.65C29.482 16.27 29.642 16.73 29.962 17.03C30.282 17.31 30.792 17.45 31.492 17.45ZM57.5634 4.76C59.5634 4.76 61.0434 5.37 62.0034 6.59C62.9834 7.79 63.4734 9.48 63.4734 11.66V20H59.7534V11.93C59.7534 10.51 59.5334 9.47 59.0934 8.81C58.6534 8.15 57.9334 7.82 56.9334 7.82C55.9534 7.82 55.2134 8.16 54.7134 8.84C54.2134 9.5 53.9634 10.44 53.9634 11.66V20H50.2434V11.93C50.2434 10.51 50.0134 9.47 49.5534 8.81C49.0934 8.15 48.3634 7.82 47.3634 7.82C46.1834 7.82 45.2134 8.25 44.4534 9.11V20H40.7334V5H43.9134L44.0334 6.2C45.3934 5.24 46.8634 4.76 48.4434 4.76C50.3634 4.76 51.7934 5.45 52.7334 6.83C53.2534 6.17 53.9334 5.66 54.7734 5.3C55.6134 4.94 56.5434 4.76 57.5634 4.76Z" fill="#324162"/>
<path d="M65.5476 15.92H69.4476V20H65.5476V15.92Z" fill="#0BBEF2"/>
<path d="M4.63 19.16L3.87616 19.8172L3.88476 19.8268L4.63 19.16ZM3.61 8.06H4.61V7.06H3.61V8.06ZM1.48 8.06L0.485765 7.95278L0.366359 9.06H1.48V8.06ZM1.81 5V4H0.912045L0.815765 4.89278L1.81 5ZM3.61 5V6H4.61V5H3.61ZM3.61 1.7L3.50573 0.70545L2.61 0.799358V1.7H3.61ZM7.33 1.31H8.33V0.19968L7.22573 0.31545L7.33 1.31ZM7.33 5H6.33V6H7.33V5ZM10.63 5H11.63V4H10.63V5ZM10.63 8.06V9.06H11.63V8.06H10.63ZM7.33 8.06V7.06H6.33V8.06H7.33ZM7.45 16.52L6.47986 16.7625L6.48917 16.7998L6.50132 16.8362L7.45 16.52ZM8.02 17.12L7.68366 18.0617L7.7225 18.0756L7.76234 18.0862L8.02 17.12ZM10.63 17.24L11.6242 17.3472L11.7436 16.24H10.63V17.24ZM10.3 20.3V21.3H11.198L11.2942 20.4072L10.3 20.3ZM7.63 19.3C6.5055 19.3 5.81334 18.9828 5.37524 18.4932L3.88476 19.8268C4.80666 20.8572 6.1145 21.3 7.63 21.3V19.3ZM5.38377 18.5029C4.86995 17.9135 4.61 17.2199 4.61 16.37H2.61C2.61 17.6801 3.03005 18.8465 3.87623 19.8171L5.38377 18.5029ZM4.61 16.37V8.06H2.61V16.37H4.61ZM3.61 7.06H1.48V9.06H3.61V7.06ZM2.47424 8.16722L2.80424 5.10722L0.815765 4.89278L0.485765 7.95278L2.47424 8.16722ZM1.81 6H3.61V4H1.81V6ZM4.61 5V1.7H2.61V5H4.61ZM3.71427 2.69455L7.43427 2.30455L7.22573 0.31545L3.50573 0.70545L3.71427 2.69455ZM6.33 1.31V5H8.33V1.31H6.33ZM7.33 6H10.63V4H7.33V6ZM9.63 5V8.06H11.63V5H9.63ZM10.63 7.06H7.33V9.06H10.63V7.06ZM6.33 8.06V14.84H8.33V8.06H6.33ZM6.33 14.84C6.33 15.6387 6.36682 16.3104 6.47986 16.7625L8.42014 16.2775C8.37318 16.0896 8.33 15.6413 8.33 14.84H6.33ZM6.50132 16.8362C6.69135 17.4063 7.09366 17.851 7.68366 18.0617L8.35634 16.1783C8.3524 16.1769 8.35631 16.1778 8.36491 16.1833C8.37377 16.189 8.38356 16.1968 8.3925 16.2063C8.40133 16.2155 8.40581 16.2226 8.40691 16.2245C8.4078 16.2261 8.40417 16.2202 8.39868 16.2038L6.50132 16.8362ZM7.76234 18.0862C8.2028 18.2037 8.8524 18.24 9.61 18.24V16.24C8.8476 16.24 8.4372 16.1963 8.27766 16.1538L7.76234 18.0862ZM9.61 18.24H10.63V16.24H9.61V18.24ZM9.63577 17.1328L9.30576 20.1928L11.2942 20.4072L11.6242 17.3472L9.63577 17.1328ZM10.3 19.3H7.63V21.3H10.3V19.3ZM14.9125 19.25L14.4042 20.1112L14.4125 20.1161L14.4209 20.1208L14.9125 19.25ZM12.1525 16.4L11.2581 16.8472L11.2626 16.8562L11.2673 16.8651L12.1525 16.4ZM12.1225 8.57L13.0169 9.01721L13.0169 9.01721L12.1225 8.57ZM14.6425 5.81L15.1684 6.66067L15.1794 6.65366L14.6425 5.81ZM22.1125 5.63L21.5954 6.48595L21.6032 6.49058L22.1125 5.63ZM24.3025 7.97L23.4044 8.40987L23.408 8.4172L23.4117 8.42447L24.3025 7.97ZM24.8125 13.31V14.31H25.6239L25.7911 13.516L24.8125 13.31ZM15.1225 13.31V12.31H13.9596L14.1338 13.4598L15.1225 13.31ZM16.6825 16.28L16.0647 17.0663L16.0705 17.0709L16.0765 17.0754L16.6825 16.28ZM24.2125 16.01L25.2109 15.953L25.117 14.3094L23.7017 15.1503L24.2125 16.01ZM24.3925 19.16L24.8617 20.0431L25.4274 19.7426L25.3909 19.103L24.3925 19.16ZM22.1425 20L22.3741 20.9728L22.3822 20.9709L22.3903 20.9688L22.1425 20ZM21.2725 10.79V11.79H22.2725V10.79H21.2725ZM20.6125 8.72L19.8061 9.31136L19.8061 9.31136L20.6125 8.72ZM16.3525 8.63L17.0466 9.34984L17.0466 9.34984L16.3525 8.63ZM15.2125 10.79L14.2363 10.5731L13.9659 11.79H15.2125V10.79ZM19.3825 19.3C17.7768 19.3 16.4642 18.9776 15.4041 18.3792L14.4209 20.1208C15.8408 20.9224 17.5082 21.3 19.3825 21.3V19.3ZM15.4208 18.3888C14.3503 17.757 13.5658 16.9399 13.0377 15.9349L11.2673 16.8651C11.9792 18.2201 13.0347 19.303 14.4042 20.1112L15.4208 18.3888ZM13.0469 15.9528C12.5223 14.9036 12.2525 13.7287 12.2525 12.41H10.2525C10.2525 14.0113 10.5827 15.4964 11.2581 16.8472L13.0469 15.9528ZM12.2525 12.41C12.2525 11.1526 12.5118 10.0275 13.0169 9.01721L11.2281 8.12279C10.5732 9.43249 10.2525 10.8674 10.2525 12.41H12.2525ZM13.0169 9.01721C13.5141 8.02278 14.2267 7.24267 15.1683 6.66059L14.1167 4.9594C12.8583 5.73733 11.8909 6.79722 11.2281 8.12279L13.0169 9.01721ZM15.1794 6.65366C16.0938 6.07175 17.2106 5.76 18.5725 5.76V3.76C16.8944 3.76 15.3912 4.14825 14.1056 4.96634L15.1794 6.65366ZM18.5725 5.76C19.8351 5.76 20.8258 6.02097 21.5954 6.48591L22.6296 4.77408C21.4792 4.07903 20.1099 3.76 18.5725 3.76V5.76ZM21.6032 6.49058C22.4231 6.97581 23.0141 7.61289 23.4044 8.40987L25.2006 7.53013C24.6309 6.36711 23.7619 5.44419 22.6218 4.76942L21.6032 6.49058ZM23.4117 8.42447C23.8324 9.24897 24.0525 10.1905 24.0525 11.27H26.0525C26.0525 9.90947 25.7726 8.65103 25.1933 7.51553L23.4117 8.42447ZM24.0525 11.27C24.0525 11.784 23.9836 12.3931 23.834 13.104L25.7911 13.516C25.9614 12.7069 26.0525 11.956 26.0525 11.27H24.0525ZM24.8125 12.31H15.1225V14.31H24.8125V12.31ZM14.1338 13.4598C14.3619 14.9657 14.9777 16.2123 16.0647 17.0663L17.3003 15.4937C16.7073 15.0277 16.2831 14.2943 16.1112 13.1602L14.1338 13.4598ZM16.0765 17.0754C17.111 17.8636 18.3406 18.24 19.7125 18.24V16.24C18.7244 16.24 17.934 15.9764 17.2885 15.4846L16.0765 17.0754ZM19.7125 18.24C21.5106 18.24 23.1873 17.7824 24.7233 16.8697L23.7017 15.1503C22.4777 15.8776 21.1544 16.24 19.7125 16.24V18.24ZM23.2141 16.067L23.3941 19.217L25.3909 19.103L25.2109 15.953L23.2141 16.067ZM23.9233 18.2769C23.3671 18.5724 22.6943 18.8266 21.8947 19.0312L22.3903 20.9688C23.3107 20.7334 24.1379 20.4276 24.8617 20.0431L23.9233 18.2769ZM21.9109 19.0272C21.1576 19.2066 20.3165 19.3 19.3825 19.3V21.3C20.4485 21.3 21.4474 21.1934 22.3741 20.9728L21.9109 19.0272ZM22.2725 10.79C22.2725 9.80827 21.991 8.90879 21.4189 8.12864L19.8061 9.31136C20.114 9.73121 20.2725 10.2117 20.2725 10.79H22.2725ZM21.4189 8.12864C20.7457 7.21067 19.7268 6.82 18.5725 6.82V8.82C19.2582 8.82 19.5993 9.02933 19.8061 9.31136L21.4189 8.12864ZM18.5725 6.82C17.4441 6.82 16.4382 7.15816 15.6584 7.91016L17.0466 9.34984C17.3868 9.02184 17.8609 8.82 18.5725 8.82V6.82ZM15.6584 7.91016C14.9325 8.61007 14.4709 9.5175 14.2363 10.5731L16.1887 11.0069C16.3541 10.2625 16.6525 9.72993 17.0466 9.34984L15.6584 7.91016ZM15.2125 11.79H21.2725V9.79H15.2125V11.79ZM26.812 19.1L26.1048 19.8071L26.1135 19.8157L26.1223 19.8241L26.812 19.1ZM26.992 12.68L27.6306 13.4496L27.6401 13.4415L26.992 12.68ZM30.322 11L30.5645 11.9701L30.5716 11.9684L30.5787 11.9665L30.322 11ZM34.012 10.43L34.0458 11.4294L35.0569 11.3952L35.0109 10.3846L34.012 10.43ZM33.322 8.54L32.6332 9.265L32.642 9.27338L32.651 9.28153L33.322 8.54ZM29.362 8.24L29.0912 7.27731L29.0831 7.27965L29.362 8.24ZM27.202 9.11L26.2078 9.21827L26.3619 10.6324L27.6404 10.0088L27.202 9.11ZM26.872 6.08L26.4367 5.17972L25.8014 5.48685L25.8778 6.18827L26.872 6.08ZM36.352 6.2L35.6299 6.89195L35.6374 6.89962L36.352 6.2ZM37.852 16.49L36.8672 16.6638L36.8733 16.6984L36.8818 16.7325L37.852 16.49ZM38.212 17.12L37.682 17.968L37.7416 18.0053L37.8058 18.0338L38.212 17.12ZM39.562 17.24L40.5562 17.3472L40.6756 16.24H39.562V17.24ZM39.232 20.3V21.3H40.1299L40.2262 20.4072L39.232 20.3ZM35.812 19.85L35.3158 20.7182L35.3277 20.725L35.3397 20.7315L35.812 19.85ZM34.522 18.56L35.3961 18.0744L34.7113 16.8418L33.7745 17.8956L34.522 18.56ZM32.542 19.85L32.8856 20.7892L32.8979 20.7845L32.542 19.85ZM32.782 17.18L33.1331 18.1163L33.1499 18.11L33.1666 18.1031L32.782 17.18ZM34.042 16.37L34.7286 17.097L35.042 16.801V16.37H34.042ZM34.042 12.95H35.042V11.8988L33.992 11.9512L34.042 12.95ZM29.962 17.03L29.278 17.7595L29.2905 17.7713L29.3034 17.7826L29.962 17.03ZM29.932 19.3C28.9293 19.3 28.142 18.9858 27.5016 18.3759L26.1223 19.8241C27.1619 20.8142 28.4546 21.3 29.932 21.3V19.3ZM27.5191 18.3929C26.9217 17.7955 26.582 16.9689 26.582 15.8H24.582C24.582 17.3911 25.0622 18.7645 26.1048 19.8071L27.5191 18.3929ZM26.582 15.8C26.582 14.7756 26.9358 14.026 27.6305 13.4496L26.3534 11.9104C25.1681 12.894 24.582 14.2244 24.582 15.8H26.582ZM27.6401 13.4415C28.4548 12.7482 29.4234 12.2554 30.5645 11.9701L30.0794 10.0299C28.6605 10.3846 27.4092 11.0118 26.3438 11.9185L27.6401 13.4415ZM30.5787 11.9665C31.7945 11.6435 32.9496 11.4666 34.0458 11.4294L33.9781 9.43057C32.7143 9.47341 31.4094 9.67648 30.0652 10.0335L30.5787 11.9665ZM35.0109 10.3846C34.9654 9.38239 34.6969 8.43541 33.9929 7.79846L32.651 9.28153C32.787 9.40458 32.9785 9.71761 33.013 10.4754L35.0109 10.3846ZM34.0107 7.815C33.3312 7.1695 32.3406 6.97 31.312 6.97V8.97C32.1633 8.97 32.5127 9.1505 32.6332 9.265L34.0107 7.815ZM31.312 6.97C30.5597 6.97 29.8187 7.07275 29.0912 7.27735L29.6327 9.20265C30.1852 9.04725 30.7442 8.97 31.312 8.97V6.97ZM29.0831 7.27965C28.391 7.4806 27.6157 7.79555 26.7635 8.21123L27.6404 10.0088C28.4282 9.62445 29.0929 9.3594 29.6408 9.20035L29.0831 7.27965ZM28.1961 9.00173L27.8661 5.97173L25.8778 6.18827L26.2078 9.21827L28.1961 9.00173ZM27.3073 6.98028C29.0067 6.15857 30.6787 5.76 32.332 5.76V3.76C30.3452 3.76 28.3772 4.24143 26.4367 5.17972L27.3073 6.98028ZM32.332 5.76C33.9114 5.76 34.9539 6.18649 35.63 6.89191L37.0739 5.50809C35.91 4.29351 34.2726 3.76 32.332 3.76V5.76ZM35.6374 6.89962C36.3144 7.59094 36.762 8.80891 36.762 10.79H38.762C38.762 8.57109 38.2696 6.72906 37.0665 5.50037L35.6374 6.89962ZM36.762 10.79V14.84H38.762V10.79H36.762ZM36.762 14.84C36.762 15.6061 36.7908 16.2312 36.8672 16.6638L38.8367 16.3162C38.7931 16.0688 38.762 15.5939 38.762 14.84H36.762ZM36.8818 16.7325C36.9814 17.1307 37.1873 17.6588 37.682 17.968L38.742 16.272C38.7884 16.3011 38.821 16.3313 38.8416 16.3541C38.8616 16.3763 38.87 16.391 38.8702 16.3914C38.8704 16.3917 38.8645 16.3813 38.8551 16.3563C38.8457 16.3315 38.8342 16.2959 38.8221 16.2475L36.8818 16.7325ZM37.8058 18.0338C38.1881 18.2037 38.6568 18.24 39.082 18.24V16.24C38.9124 16.24 38.7878 16.2313 38.7011 16.2194C38.6086 16.2066 38.5916 16.1944 38.6181 16.2062L37.8058 18.0338ZM39.082 18.24H39.562V16.24H39.082V18.24ZM38.5677 17.1328L38.2377 20.1928L40.2262 20.4072L40.5562 17.3472L38.5677 17.1328ZM39.232 19.3H37.882V21.3H39.232V19.3ZM37.882 19.3C37.1802 19.3 36.6628 19.1714 36.2842 18.9685L35.3397 20.7315C36.0811 21.1286 36.9437 21.3 37.882 21.3V19.3ZM36.3081 18.9818C35.8994 18.7482 35.6034 18.4475 35.3961 18.0744L33.6478 19.0456C34.0405 19.7525 34.6046 20.3118 35.3158 20.7182L36.3081 18.9818ZM33.7745 17.8956C33.4244 18.2896 32.9117 18.639 32.186 18.9155L32.8979 20.7845C33.8522 20.421 34.6596 19.9104 35.2694 19.2244L33.7745 17.8956ZM32.1984 18.9109C31.4943 19.1685 30.7411 19.3 29.932 19.3V21.3C30.9628 21.3 31.9497 21.1315 32.8855 20.7891L32.1984 18.9109ZM31.492 18.45C32.0257 18.45 32.5775 18.3247 33.1331 18.1163L32.4308 16.2437C32.0264 16.3953 31.7183 16.45 31.492 16.45V18.45ZM33.1666 18.1031C33.7526 17.8589 34.2762 17.5242 34.7286 17.097L33.3553 15.643C33.0877 15.8958 32.7713 16.1011 32.3973 16.2569L33.1666 18.1031ZM35.042 16.37V12.95H33.042V16.37H35.042ZM33.992 11.9512C32.6768 12.017 31.4776 12.3042 30.4147 12.8356L31.3092 14.6244C32.0863 14.2358 33.0071 14.003 34.0919 13.9488L33.992 11.9512ZM30.4147 12.8356C29.259 13.4135 28.482 14.3483 28.482 15.65H30.482C30.482 15.3117 30.6249 14.9665 31.3092 14.6244L30.4147 12.8356ZM28.482 15.65C28.482 16.4297 28.6846 17.2032 29.278 17.7595L30.6459 16.3005C30.5993 16.2568 30.482 16.1103 30.482 15.65H28.482ZM29.3034 17.7826C29.8918 18.2973 30.6957 18.45 31.492 18.45V16.45C30.8882 16.45 30.6722 16.3227 30.6205 16.2774L29.3034 17.7826ZM62.0034 6.59L61.2175 7.20839L61.2231 7.21551L61.2288 7.22253L62.0034 6.59ZM63.4734 20V21H64.4734V20H63.4734ZM59.7534 20H58.7534V21H59.7534V20ZM59.0934 8.81L59.9254 8.2553L59.9254 8.2553L59.0934 8.81ZM54.7134 8.84L55.5105 9.44386L55.5148 9.43815L55.519 9.43239L54.7134 8.84ZM53.9634 20V21H54.9634V20H53.9634ZM50.2434 20H49.2434V21H50.2434V20ZM49.5534 8.81L50.3738 8.23821L50.3738 8.23821L49.5534 8.81ZM44.4534 9.11L43.704 8.4478L43.4534 8.73146V9.11H44.4534ZM44.4534 20V21H45.4534V20H44.4534ZM40.7334 20H39.7334V21H40.7334V20ZM40.7334 5V4H39.7334V5H40.7334ZM43.9134 5L44.9084 4.9005L44.8183 4H43.9134V5ZM44.0334 6.2L43.0383 6.2995L43.209 8.00596L44.61 7.01697L44.0334 6.2ZM52.7334 6.83L51.9069 7.39296L52.6747 8.52025L53.5189 7.44887L52.7334 6.83ZM54.7734 5.3L55.1673 6.21914L55.1673 6.21914L54.7734 5.3ZM57.5634 5.76C59.353 5.76 60.4995 6.296 61.2175 7.20839L62.7892 5.97161C61.5872 4.444 59.7738 3.76 57.5634 3.76V5.76ZM61.2288 7.22253C62.0137 8.18358 62.4734 9.61816 62.4734 11.66H64.4734C64.4734 9.34184 63.953 7.39641 62.7779 5.95746L61.2288 7.22253ZM62.4734 11.66V20H64.4734V11.66H62.4734ZM63.4734 19H59.7534V21H63.4734V19ZM60.7534 20V11.93H58.7534V20H60.7534ZM60.7534 11.93C60.7534 10.4484 60.5316 9.1646 59.9254 8.2553L58.2613 9.3647C58.5351 9.7754 58.7534 10.5716 58.7534 11.93H60.7534ZM59.9254 8.2553C59.2512 7.24406 58.1692 6.82 56.9334 6.82V8.82C57.6975 8.82 58.0555 9.05594 58.2613 9.3647L59.9254 8.2553ZM56.9334 6.82C55.6937 6.82 54.6283 7.26766 53.9077 8.24761L55.519 9.43239C55.7985 9.05234 56.213 8.82 56.9334 8.82V6.82ZM53.9163 8.23614C53.2353 9.13501 52.9634 10.3209 52.9634 11.66H54.9634C54.9634 10.5591 55.1914 9.86499 55.5105 9.44386L53.9163 8.23614ZM52.9634 11.66V20H54.9634V11.66H52.9634ZM53.9634 19H50.2434V21H53.9634V19ZM51.2434 20V11.93H49.2434V20H51.2434ZM51.2434 11.93C51.2434 10.4432 51.0103 9.15153 50.3738 8.23821L48.733 9.38179C49.0164 9.78847 49.2434 10.5768 49.2434 11.93H51.2434ZM50.3738 8.23821C49.6808 7.24401 48.6009 6.82 47.3634 6.82V8.82C48.1258 8.82 48.5059 9.05599 48.733 9.38179L50.3738 8.23821ZM47.3634 6.82C45.9059 6.82 44.6599 7.3662 43.704 8.4478L45.2027 9.7722C45.7669 9.1338 46.4608 8.82 47.3634 8.82V6.82ZM43.4534 9.11V20H45.4534V9.11H43.4534ZM44.4534 19H40.7334V21H44.4534V19ZM41.7334 20V5H39.7334V20H41.7334ZM40.7334 6H43.9134V4H40.7334V6ZM42.9183 5.0995L43.0383 6.2995L45.0284 6.1005L44.9084 4.9005L42.9183 5.0995ZM44.61 7.01697C45.8109 6.16929 47.0813 5.76 48.4434 5.76V3.76C46.6454 3.76 44.9758 4.31071 43.4567 5.38303L44.61 7.01697ZM48.4434 5.76C50.09 5.76 51.1833 6.33071 51.9069 7.39296L53.5598 6.26703C52.4034 4.56929 50.6367 3.76 48.4434 3.76V5.76ZM53.5189 7.44887C53.9265 6.93141 54.467 6.51925 55.1673 6.21914L54.3794 4.38085C53.3997 4.80075 52.5802 5.40859 51.9479 6.21113L53.5189 7.44887ZM55.1673 6.21914C55.8691 5.91836 56.663 5.76 57.5634 5.76V3.76C56.4237 3.76 55.3576 3.96164 54.3794 4.38085L55.1673 6.21914ZM65.5476 15.92V14.92H64.5476V15.92H65.5476ZM69.4476 15.92H70.4476V14.92H69.4476V15.92ZM69.4476 20V21H70.4476V20H69.4476ZM65.5476 20H64.5476V21H65.5476V20ZM65.5476 16.92H69.4476V14.92H65.5476V16.92ZM68.4476 15.92V20H70.4476V15.92H68.4476ZM69.4476 19H65.5476V21H69.4476V19ZM66.5476 20V15.92H64.5476V20H66.5476Z" fill="black"/>
</svg>
