<svg id="Layer_1" data-name="Layer 1" xmlns="http://www.w3.org/2000/svg" viewBox="0 0 284 75"><defs><style>.cls-1{fill:#0d2240;}.cls-2{fill:#fff;}</style></defs><title>Artboard 1</title><rect class="cls-1" x="3.5" y="4.5" width="276" height="66" rx="3.07" ry="3.07"/><path class="cls-2" d="M83.63,30.09h2.49a1,1,0,0,1,.64.19.88.88,0,0,1,.35.49l2.7,9.51c.07.23.13.49.19.76s.1.57.15.88c.06-.31.13-.6.2-.88s.14-.53.22-.76l3.13-9.51A1.07,1.07,0,0,1,94,30.3a1,1,0,0,1,.64-.21h.86a1,1,0,0,1,.64.19,1,1,0,0,1,.36.49l3.1,9.51a13.45,13.45,0,0,1,.42,1.56c0-.28.1-.56.15-.82s.12-.51.17-.74l2.71-9.51a.89.89,0,0,1,.34-.48,1.06,1.06,0,0,1,.64-.2h2.32L101.45,46H98.78L95.3,35.13c0-.14-.09-.29-.13-.45s-.1-.33-.14-.52c0,.19-.09.36-.14.52s-.09.31-.14.45L91.24,46H88.57Z"/><path class="cls-2" d="M115.73,46h-1.22a1.29,1.29,0,0,1-.61-.12.77.77,0,0,1-.33-.46l-.24-.81a7.16,7.16,0,0,1-.84.68,5.19,5.19,0,0,1-.85.49,4.91,4.91,0,0,1-.94.3,6.07,6.07,0,0,1-1.1.1,4.34,4.34,0,0,1-1.32-.2,2.86,2.86,0,0,1-1-.58,2.48,2.48,0,0,1-.67-1,3.4,3.4,0,0,1-.24-1.33,2.7,2.7,0,0,1,.33-1.27,3.15,3.15,0,0,1,1.12-1.12,6.92,6.92,0,0,1,2.08-.83,12.75,12.75,0,0,1,3.22-.34v-.66a2.51,2.51,0,0,0-.48-1.69,1.73,1.73,0,0,0-1.39-.55,3.44,3.44,0,0,0-1.1.15,5.05,5.05,0,0,0-.77.35l-.59.35a1.28,1.28,0,0,1-.61.15.82.82,0,0,1-.47-.14,1.19,1.19,0,0,1-.32-.35l-.5-.87a6.73,6.73,0,0,1,4.7-1.79,4.5,4.5,0,0,1,1.77.33,3.92,3.92,0,0,1,1.31.9,4,4,0,0,1,.82,1.38,5.24,5.24,0,0,1,.28,1.76Zm-5.28-1.69a3.64,3.64,0,0,0,.77-.08,3.12,3.12,0,0,0,.67-.23,3.47,3.47,0,0,0,.6-.37,5.52,5.52,0,0,0,.59-.53V41.21a11.05,11.05,0,0,0-2,.15,5,5,0,0,0-1.28.39,1.63,1.63,0,0,0-.69.54,1.26,1.26,0,0,0-.2.68,1.2,1.2,0,0,0,.42,1A1.92,1.92,0,0,0,110.45,44.31Z"/><path class="cls-2" d="M122.11,46.18a3,3,0,0,1-2.26-.83,3.24,3.24,0,0,1-.79-2.3v-6.3h-1.14a.57.57,0,0,1-.38-.14.54.54,0,0,1-.16-.43V35.1l1.82-.3.57-3.08a.54.54,0,0,1,.2-.34.65.65,0,0,1,.4-.12h1.41v3.55h3v1.94h-3v6.12a1.22,1.22,0,0,0,.26.82.91.91,0,0,0,.71.3,1.25,1.25,0,0,0,.42-.06,3,3,0,0,0,.3-.13l.22-.13a.41.41,0,0,1,.2-.06.32.32,0,0,1,.2.06.73.73,0,0,1,.16.18l.82,1.32a4.2,4.2,0,0,1-1.36.75A5.11,5.11,0,0,1,122.11,46.18Z"/><path class="cls-2" d="M134.85,37.1a1.36,1.36,0,0,1-.24.24.54.54,0,0,1-.33.09.71.71,0,0,1-.41-.13L133.4,37a4.08,4.08,0,0,0-.66-.29,3.16,3.16,0,0,0-.94-.12,2.88,2.88,0,0,0-1.25.25,2.42,2.42,0,0,0-.9.75,3.15,3.15,0,0,0-.53,1.17,6.17,6.17,0,0,0-.18,1.55,6,6,0,0,0,.19,1.61,3.5,3.5,0,0,0,.56,1.18,2.38,2.38,0,0,0,.88.73,2.71,2.71,0,0,0,1.16.25,3.07,3.07,0,0,0,1.06-.16,4.14,4.14,0,0,0,.67-.35c.19-.13.34-.25.48-.36a.78.78,0,0,1,.46-.16.55.55,0,0,1,.49.26l.78,1a4.76,4.76,0,0,1-1,.88,4.94,4.94,0,0,1-1.09.57,5.32,5.32,0,0,1-1.17.31,8.28,8.28,0,0,1-1.2.09,5,5,0,0,1-2-.4,4.66,4.66,0,0,1-1.61-1.13,5.48,5.48,0,0,1-1.09-1.84,7,7,0,0,1-.4-2.47,7.15,7.15,0,0,1,.36-2.3,5,5,0,0,1,1-1.84A4.83,4.83,0,0,1,129.28,35a5.81,5.81,0,0,1,2.36-.44,5.59,5.59,0,0,1,2.21.4,5.37,5.37,0,0,1,1.71,1.17Z"/><path class="cls-2" d="M137.41,46V29.65h2.72v6.29a5.77,5.77,0,0,1,1.45-1,4.32,4.32,0,0,1,1.86-.38,4.07,4.07,0,0,1,1.64.31,3.27,3.27,0,0,1,1.19.88,4,4,0,0,1,.73,1.35,6,6,0,0,1,.24,1.74V46h-2.71V38.82a2.39,2.39,0,0,0-.48-1.6,1.78,1.78,0,0,0-1.44-.57,2.86,2.86,0,0,0-1.32.32,4.46,4.46,0,0,0-1.16.87V46Z"/><path class="cls-2" d="M165.53,30.09v2.43h-4.79V46h-3V32.52H153V30.09Z"/><path class="cls-2" d="M167.25,46V29.65H170v6.29a5.77,5.77,0,0,1,1.45-1,4.32,4.32,0,0,1,1.86-.38,4,4,0,0,1,1.64.31,3.19,3.19,0,0,1,1.19.88,4,4,0,0,1,.73,1.35,6,6,0,0,1,.25,1.74V46h-2.72V38.82a2.39,2.39,0,0,0-.48-1.6,1.77,1.77,0,0,0-1.43-.57,2.86,2.86,0,0,0-1.32.32,4.5,4.5,0,0,0-1.17.87V46Z"/><path class="cls-2" d="M184.42,34.54a5.47,5.47,0,0,1,2,.34,4.43,4.43,0,0,1,1.54,1,4.5,4.5,0,0,1,1,1.61,5.88,5.88,0,0,1,.37,2.17,3.49,3.49,0,0,1,0,.51.75.75,0,0,1-.1.32.39.39,0,0,1-.19.17.87.87,0,0,1-.31.05h-7a3.88,3.88,0,0,0,.93,2.55,2.92,2.92,0,0,0,2.16.81,3.84,3.84,0,0,0,1.14-.15,6,6,0,0,0,.83-.34l.63-.34a1.08,1.08,0,0,1,.52-.16.65.65,0,0,1,.29.07.63.63,0,0,1,.21.19l.79,1a4.66,4.66,0,0,1-1,.88,5.74,5.74,0,0,1-1.17.57,6.18,6.18,0,0,1-1.25.31,8.66,8.66,0,0,1-1.22.09,6,6,0,0,1-2.19-.4,4.85,4.85,0,0,1-1.76-1.15,5.47,5.47,0,0,1-1.18-1.89,7.25,7.25,0,0,1-.43-2.61,6.06,6.06,0,0,1,.38-2.18,5,5,0,0,1,2.77-3A5.51,5.51,0,0,1,184.42,34.54Zm.06,1.94a2.52,2.52,0,0,0-1.86.68,3.3,3.3,0,0,0-.86,1.9h5.11a3.32,3.32,0,0,0-.15-1,2.24,2.24,0,0,0-.44-.82,2.09,2.09,0,0,0-.75-.55A2.46,2.46,0,0,0,184.48,36.48Z"/><path class="cls-2" d="M194.36,30.09h2.38a1,1,0,0,1,.63.19,1.18,1.18,0,0,1,.36.49l3.74,9.7a9.65,9.65,0,0,1,.36,1c.11.37.22.77.33,1.19a12.72,12.72,0,0,1,.62-2.23l3.73-9.7a1.18,1.18,0,0,1,.35-.47,1,1,0,0,1,.63-.21h2.39L203.45,46h-2.67Z"/><path class="cls-2" d="M214.68,31.42a1.45,1.45,0,0,1-.14.66,1.6,1.6,0,0,1-.38.54,1.72,1.72,0,0,1-.55.37,1.77,1.77,0,0,1-.69.14,1.66,1.66,0,0,1-.66-.14,1.69,1.69,0,0,1-.91-.91,1.45,1.45,0,0,1-.14-.66,1.59,1.59,0,0,1,.14-.68,1.87,1.87,0,0,1,.36-.55,2.12,2.12,0,0,1,.55-.37,1.65,1.65,0,0,1,.66-.13,1.77,1.77,0,0,1,.69.13,2.12,2.12,0,0,1,.55.37,1.75,1.75,0,0,1,.38.55A1.59,1.59,0,0,1,214.68,31.42Zm-.4,3.29V46h-2.72V34.71Z"/><path class="cls-2" d="M225.29,46a.67.67,0,0,1-.69-.5l-.22-1.08a7,7,0,0,1-.74.71,4.6,4.6,0,0,1-.83.55,5,5,0,0,1-1,.36,4.81,4.81,0,0,1-1.1.13,3.7,3.7,0,0,1-1.7-.39,3.8,3.8,0,0,1-1.32-1.12,5.25,5.25,0,0,1-.86-1.81,9.16,9.16,0,0,1-.3-2.46,7.59,7.59,0,0,1,.34-2.33,5.47,5.47,0,0,1,1-1.87A4.54,4.54,0,0,1,219.41,35a4.43,4.43,0,0,1,2-.45,3.88,3.88,0,0,1,1.61.31,4.09,4.09,0,0,1,1.2.81v-6H227V46Zm-3.62-2a2.84,2.84,0,0,0,1.44-.35,4.32,4.32,0,0,0,1.12-1V37.6a2.72,2.72,0,0,0-1-.8,3.1,3.1,0,0,0-1.18-.23,2.65,2.65,0,0,0-1.11.23,2.21,2.21,0,0,0-.85.7,3.35,3.35,0,0,0-.53,1.19,6.58,6.58,0,0,0-.19,1.7,7.36,7.36,0,0,0,.16,1.68,3.31,3.31,0,0,0,.46,1.12,1.73,1.73,0,0,0,.72.63A2.49,2.49,0,0,0,221.67,44Z"/><path class="cls-2" d="M234.55,34.54a5.38,5.38,0,0,1,2,.34,4.38,4.38,0,0,1,1.55,1,4.64,4.64,0,0,1,1,1.61,6.09,6.09,0,0,1,.36,2.17c0,.21,0,.38,0,.51a.93.93,0,0,1-.1.32.37.37,0,0,1-.2.17.85.85,0,0,1-.3.05h-7a3.83,3.83,0,0,0,.94,2.55,2.91,2.91,0,0,0,2.15.81,3.84,3.84,0,0,0,1.14-.15,5.63,5.63,0,0,0,.84-.34l.63-.34a1.08,1.08,0,0,1,.52-.16.61.61,0,0,1,.28.07.63.63,0,0,1,.21.19l.79,1a4.44,4.44,0,0,1-1,.88,5.28,5.28,0,0,1-1.17.57,6.08,6.08,0,0,1-1.24.31,8.69,8.69,0,0,1-1.23.09,6.08,6.08,0,0,1-2.19-.4,4.93,4.93,0,0,1-1.76-1.15,5.31,5.31,0,0,1-1.17-1.89,7.25,7.25,0,0,1-.43-2.61,6.28,6.28,0,0,1,.37-2.18,5.28,5.28,0,0,1,1.07-1.77A5.1,5.1,0,0,1,232.28,35,5.51,5.51,0,0,1,234.55,34.54Zm0,1.94a2.48,2.48,0,0,0-1.85.68,3.24,3.24,0,0,0-.86,1.9H237a3.66,3.66,0,0,0-.14-1,2.4,2.4,0,0,0-.44-.82,2.09,2.09,0,0,0-.75-.55A2.47,2.47,0,0,0,234.6,36.48Z"/><path class="cls-2" d="M246.46,34.54a6.24,6.24,0,0,1,2.3.4,5.05,5.05,0,0,1,1.75,1.16,5.13,5.13,0,0,1,1.12,1.83,7.46,7.46,0,0,1,0,4.82,5.17,5.17,0,0,1-1.12,1.84,4.81,4.81,0,0,1-1.75,1.17,6.66,6.66,0,0,1-4.6,0,4.85,4.85,0,0,1-1.76-1.17,5.21,5.21,0,0,1-1.14-1.84,7.46,7.46,0,0,1,0-4.82,5.17,5.17,0,0,1,1.14-1.83,5.1,5.1,0,0,1,1.76-1.16A6.28,6.28,0,0,1,246.46,34.54Zm0,9.54a2.4,2.4,0,0,0,2.09-.95,4.76,4.76,0,0,0,.67-2.77,4.83,4.83,0,0,0-.67-2.79,2.79,2.79,0,0,0-4.2,0,4.81,4.81,0,0,0-.68,2.78,4.72,4.72,0,0,0,.68,2.76A2.41,2.41,0,0,0,246.46,44.08Z"/><path class="cls-2" d="M61.86,37.26A16.81,16.81,0,0,1,59.51,46a17.57,17.57,0,0,1-6.35,6.35,17.28,17.28,0,0,1-17.4,0A17.65,17.65,0,0,1,29.41,46a17.28,17.28,0,0,1,0-17.4,17.73,17.73,0,0,1,6.35-6.35,17.28,17.28,0,0,1,17.4,0,17.65,17.65,0,0,1,6.35,6.35A16.86,16.86,0,0,1,61.86,37.26Zm-31.43,0a13.64,13.64,0,0,0,1.89,7,14.15,14.15,0,0,0,5.13,5.12,14,14,0,0,0,14,0,14.12,14.12,0,0,0,5.12-5.12,14,14,0,0,0,0-14,14.15,14.15,0,0,0-5.12-5.13,14,14,0,0,0-14,0,14.18,14.18,0,0,0-5.13,5.13A13.63,13.63,0,0,0,30.43,37.26ZM52.6,36a1.72,1.72,0,0,1,0,3L40.25,46a1.55,1.55,0,0,1-1.68,0,1.6,1.6,0,0,1-.84-1.47V30a1.6,1.6,0,0,1,.84-1.47,1.55,1.55,0,0,1,1.68,0Z"/></svg>